# xmcd
#
# Track frame offsets:
#	150
#	13845
#	29102
#	41565
#	53227
#	67949
#	82013
#	93346
#	108136
#	122296
#	133838
#	146640
#	160437
#	172541
#	181209
#	194941
#	209723
#	224656
#
# Disc length: 3152 seconds
# Revision: 1
# Processed by: cddbd v1.5.2PL0 Copyright (c) Steve Scherf et al.
# Submitted via: dBpowerAMP V12.0
#
DISCID=0e0c4e12
DTITLE=Sarah Vaughan - Serenade
DYEAR=2006
DGENRE=Blues
TTITLE0=Misty
TTITLE1=Come Rain Or Come Shine
TTITLE2=What A Diffrence A Day
TTITLE3=Nice Work If You Can Get It
TTITLE4=Summertime
TTITLE5=East Of The Sun (West Of The Moon)
TTITLE6=Perdido
TTITLE7=I'll Know
TTITLE8=Deep Purple
TTITLE9=My Reverie
TTITLE10=After Hours
TTITLE11=Street Of Dreams
TTITLE12=Sping Will Be A Little Late This Year
TTITLE13=Ooh What 'Cha Doin' To Me
TTITLE14=Thinking Of You
TTITLE15=Black Coffee
TTITLE16=The Nearness Of You
TTITLE17=A Blues Serenade
EXTD=
EXTT0=
EXTT1=
EXTT2=
EXTT3=
EXTT4=
EXTT5=
EXTT6=
EXTT7=
EXTT8=
EXTT9=
EXTT10=
EXTT11=
EXTT12=
EXTT13=
EXTT14=
EXTT15=
EXTT16=
EXTT17=
PLAYORDER=
